<?xml version="1.0" standalone="no"?>
<!DOCTYPE svg PUBLIC "-//W3C//DTD SVG 20010904//EN"
 "http://www.w3.org/TR/2001/REC-SVG-20010904/DTD/svg10.dtd">
<svg version="1.0" xmlns="http://www.w3.org/2000/svg"
 width="512.000000pt" height="512.000000pt" viewBox="0 0 512.000000 512.000000"
 preserveAspectRatio="xMidYMid meet">
<metadata>
Created by potrace 1.14, written by Peter Selinger 2001-2017
</metadata>
<g transform="translate(0.000000,512.000000) scale(0.100000,-0.100000)"
fill="#000000" stroke="none">
<path d="M3335 5110 c3 -5 17 -10 31 -10 13 0 24 -4 24 -10 0 -5 25 -8 55 -6
33 2 56 -1 58 -8 3 -7 9 -6 21 3 13 11 20 11 28 3 7 -7 19 -12 28 -12 8 0 32
-11 53 -25 30 -21 51 -26 107 -28 38 -1 70 -6 70 -11 0 -4 9 -6 20 -3 11 3 20
1 20 -4 0 -5 24 -8 54 -6 44 3 57 0 71 -15 12 -15 19 -17 29 -9 8 6 21 9 30 5
9 -3 16 -2 16 4 0 6 9 6 24 -1 16 -8 21 -16 16 -22 -6 -7 -2 -15 11 -23 15 -9
19 -9 19 0 0 6 9 2 20 -9 22 -24 70 -38 101 -28 14 5 28 0 45 -16 13 -12 24
-17 24 -11 0 7 12 11 30 10 19 -1 30 -8 30 -18 0 -13 1 -13 10 0 5 8 10 12 10
8 0 -4 10 -4 22 1 14 5 31 3 47 -6 33 -16 58 -17 68 0 11 18 59 47 78 47 9 0
14 -3 11 -8 -2 -4 44 -6 102 -5 59 1 112 -2 118 -8 6 -5 22 -8 35 -8 13 1 37
-3 52 -10 16 -6 41 -11 57 -11 16 0 36 -7 45 -16 9 -9 18 -14 21 -11 3 3 21
-3 40 -14 l34 -19 0 160 0 160 -896 0 c-594 0 -893 -3 -889 -10z"/>
<path d="M2760 5030 c-19 -5 -84 -12 -145 -15 -60 -4 -119 -11 -130 -15 -12
-4 -29 -4 -39 2 -19 11 -45 8 -151 -16 -38 -9 -81 -16 -93 -16 -13 0 -36 -6
-50 -13 -15 -8 -67 -34 -116 -58 -124 -61 -224 -163 -257 -259 -20 -59 -70
-126 -191 -262 -59 -65 -74 -88 -58 -88 6 0 8 -5 5 -10 -4 -6 -10 -8 -14 -5
-10 6 -42 -28 -45 -47 -1 -7 -6 -19 -10 -27 -6 -9 -5 -12 2 -7 6 4 20 1 30 -5
16 -10 23 -8 43 12 13 13 23 28 21 33 -2 5 5 17 15 28 14 16 15 21 4 28 -8 4
-11 15 -7 25 5 15 7 15 22 1 8 -9 20 -16 25 -16 19 0 8 -31 -15 -41 -21 -10
-23 -15 -14 -40 8 -25 6 -33 -23 -69 -22 -27 -45 -44 -71 -50 -21 -6 -38 -15
-38 -20 0 -5 14 -4 31 2 24 8 33 8 39 -2 10 -16 30 -4 30 19 0 10 16 29 35 42
21 14 38 35 41 50 3 15 18 39 32 55 15 15 33 39 39 54 l13 25 -3 -32 c-2 -18
0 -30 4 -27 4 2 11 0 14 -6 5 -8 11 -8 19 -1 7 6 16 8 19 4 4 -3 7 6 7 20 0
15 5 27 10 27 6 0 10 7 10 15 0 43 117 32 141 -12 7 -13 16 -23 19 -23 15 0
60 54 56 67 -3 7 1 13 10 13 11 0 13 -6 9 -22 -6 -16 -4 -20 7 -16 8 4 20 -3
26 -13 16 -25 36 -24 54 2 13 21 16 21 49 7 47 -21 140 -39 165 -32 12 3 25 1
28 -5 4 -6 18 -11 32 -11 14 0 41 -7 62 -16 20 -9 64 -17 97 -18 42 -1 71 -8
95 -23 19 -11 50 -24 69 -28 19 -4 41 -14 49 -21 8 -9 33 -14 65 -13 29 1 81
-6 117 -16 36 -9 76 -17 90 -17 14 0 33 -6 42 -15 12 -11 21 -12 36 -4 16 9
24 7 38 -6 19 -19 78 -43 107 -43 9 0 17 -6 17 -13 0 -19 43 -54 59 -49 10 3
12 -2 8 -18 -5 -19 -2 -21 19 -17 13 2 27 0 30 -4 9 -15 46 -10 66 8 14 13 21
14 30 5 9 -9 9 -15 0 -24 -22 -22 -14 -38 20 -36 19 2 33 -3 36 -10 2 -7 15
-24 29 -38 28 -28 24 -64 -8 -64 -10 0 -19 -5 -19 -10 0 -6 7 -10 16 -8 12 2
17 -6 19 -28 4 -48 -7 -58 -54 -50 -37 6 -41 4 -41 -14 0 -11 -7 -20 -15 -20
-8 0 -15 -9 -15 -20 0 -11 4 -20 9 -20 12 0 30 -76 24 -99 -3 -11 4 -28 15
-39 21 -21 45 -82 47 -120 0 -13 -8 -30 -19 -38 -11 -7 -18 -15 -15 -17 8 -6
64 -30 74 -32 6 -1 15 -3 20 -5 6 -1 17 -3 25 -4 9 0 14 -9 12 -21 l-4 -20 16
20 c13 18 15 18 21 3 4 -9 3 -22 -1 -29 -5 -8 0 -10 18 -7 26 5 48 -16 48 -45
0 -20 107 -20 114 -1 4 10 13 13 26 9 19 -6 20 -3 14 34 -8 48 9 79 33 60 8
-7 11 -19 8 -27 -3 -9 0 -19 7 -24 10 -6 8 -8 -4 -8 -22 0 -22 -4 -3 -34 16
-24 27 -72 27 -113 0 -13 6 -23 14 -23 25 0 74 -120 74 -180 0 -74 21 -231 30
-225 4 3 10 17 12 32 3 16 14 62 25 103 22 79 53 258 75 425 16 124 16 468 -1
590 -27 206 -120 489 -197 600 -19 28 -49 73 -68 100 -38 56 -112 135 -169
180 -21 17 -52 42 -70 56 -92 74 -288 171 -434 215 -311 93 -400 108 -503 84z
m-991 -656 c-18 -22 -22 -11 -7 22 10 21 14 24 16 10 2 -9 -2 -24 -9 -32z
m311 17 c0 -12 -20 -25 -27 -18 -7 7 6 27 18 27 5 0 9 -4 9 -9z m1797 -583
c-3 -8 -6 -5 -6 6 -1 11 2 17 5 13 3 -3 4 -12 1 -19z m84 -40 c0 -10 2 -10 6
0 9 22 41 13 77 -23 40 -38 44 -50 50 -153 3 -64 1 -75 -15 -85 -14 -9 -19
-23 -19 -55 0 -43 -11 -70 -43 -106 -10 -11 -20 -31 -23 -43 -9 -33 -24 -28
-24 6 0 18 6 31 17 35 14 6 15 9 4 16 -8 4 -19 6 -26 4 -14 -6 -39 22 -31 34
3 6 -1 15 -9 22 -13 11 -13 14 2 26 16 11 16 13 2 19 -22 8 -16 83 8 101 10 7
13 14 6 14 -13 0 -28 37 -25 58 2 6 -2 12 -9 12 -7 0 -9 10 -6 29 3 15 1 33
-5 39 -8 8 -6 18 6 36 17 27 55 36 57 14z m-151 -568 c0 -5 -4 -10 -10 -10 -5
0 -10 5 -10 10 0 6 5 10 10 10 6 0 10 -4 10 -10z m37 -22 c-3 -8 -6 -5 -6 6
-1 11 2 17 5 13 3 -3 4 -12 1 -19z"/>
<path d="M3970 3405 c0 -8 5 -15 10 -15 6 0 10 7 10 15 0 8 -4 15 -10 15 -5 0
-10 -7 -10 -15z"/>
<path d="M1437 4163 c-12 -11 -8 -23 8 -23 8 0 15 7 15 15 0 16 -12 20 -23 8z"/>
<path d="M1387 4043 c-13 -12 -7 -21 19 -27 34 -9 43 0 18 19 -22 16 -28 18
-37 8z"/>
<path d="M1483 4007 c-4 -7 -20 -22 -35 -32 -37 -23 -35 -32 6 -27 29 3 35 9
40 35 7 34 2 46 -11 24z"/>
<path d="M1337 3933 c-10 -9 -8 -65 1 -59 5 3 9 19 10 36 1 32 -1 34 -11 23z"/>
<path d="M3400 3464 c0 -8 5 -12 10 -9 6 3 10 10 10 16 0 5 -4 9 -10 9 -5 0
-10 -7 -10 -16z"/>
<path d="M2100 3198 c-19 -5 -55 -24 -80 -42 -25 -18 -66 -44 -91 -59 -34 -20
-45 -32 -44 -49 1 -15 8 -23 21 -23 10 0 18 6 17 13 -2 6 4 12 13 12 8 0 12
-4 9 -10 -6 -10 26 -15 83 -11 26 2 32 -1 32 -18 0 -17 6 -21 33 -21 18 0 38
-5 45 -12 17 -17 82 -18 82 -2 0 17 110 49 129 37 17 -11 23 -41 10 -49 -6 -3
-43 -7 -82 -9 -132 -6 -222 -32 -286 -83 -39 -31 -6 -37 44 -8 48 29 75 33 75
13 0 -7 -27 -21 -61 -32 -71 -21 -115 -54 -106 -78 4 -10 18 -18 34 -18 58 -3
80 -7 133 -28 30 -11 80 -26 112 -32 37 -7 58 -17 58 -25 0 -8 9 -14 20 -14
11 0 37 -7 59 -16 36 -14 42 -14 70 0 16 9 39 16 49 16 11 0 25 7 32 15 7 9
29 15 54 15 49 0 66 13 66 50 0 27 31 66 43 54 13 -14 37 20 37 52 0 23 5 34
19 39 28 9 91 84 91 109 0 30 -14 48 -32 41 -9 -4 -24 2 -34 13 -11 11 -34 23
-53 27 -19 4 -49 21 -68 39 -19 17 -40 34 -46 37 -27 15 -235 50 -312 52 -46
1 -87 6 -91 10 -10 9 -41 8 -84 -5z m325 -208 c3 -5 -3 -10 -15 -10 -12 0 -18
5 -15 10 3 6 10 10 15 10 5 0 12 -4 15 -10z m-275 -100 c0 -5 -4 -10 -10 -10
-5 0 -10 5 -10 10 0 6 5 10 10 10 6 0 10 -4 10 -10z m23 -115 c13 -26 14 -35
4 -35 -20 0 -37 22 -37 47 0 33 14 28 33 -12z m279 8 c26 -24 22 -41 -13 -48
-39 -9 -45 -3 -29 35 14 35 17 36 42 13z"/>
<path d="M3380 3095 c0 -8 -3 -15 -7 -16 -5 0 -21 -3 -38 -6 -40 -6 -55 -6
-85 2 -19 5 -22 4 -10 -4 13 -9 12 -11 -5 -11 -11 0 -31 -9 -45 -20 -14 -11
-31 -20 -37 -20 -7 0 -13 -4 -13 -9 0 -4 -11 -20 -25 -35 -14 -15 -25 -37 -26
-49 0 -12 -2 -87 -4 -167 -9 -287 -9 -292 14 -343 12 -25 30 -51 41 -57 11 -6
20 -21 20 -33 0 -13 5 -28 11 -34 7 -7 23 -43 36 -80 13 -37 39 -90 57 -118
42 -61 49 -84 41 -128 -13 -70 -95 -71 -95 -1 0 42 -17 51 -71 35 -27 -8 -49
-25 -69 -52 -42 -58 -146 -129 -169 -115 -12 8 -43 -29 -40 -46 2 -7 0 -25 -4
-41 -10 -37 8 -69 37 -65 25 3 59 -19 51 -32 -3 -5 8 -17 25 -26 16 -10 30
-24 30 -31 0 -8 11 -18 25 -23 41 -16 30 -37 -25 -50 -30 -7 -50 -17 -50 -26
0 -16 -36 -19 -45 -4 -12 19 -50 9 -89 -23 -53 -45 -45 -62 34 -70 77 -8 100
-21 100 -53 0 -51 -16 -64 -79 -64 -32 0 -61 3 -65 8 -4 4 -48 7 -96 7 l-89 0
47 -22 c26 -12 59 -32 74 -44 25 -20 30 -21 52 -9 21 11 28 11 41 0 12 -10 19
-10 27 -2 18 18 46 14 70 -8 12 -10 25 -17 30 -14 4 3 8 0 8 -5 0 -6 7 -11 15
-11 16 0 31 -42 21 -59 -15 -24 -110 -43 -206 -42 -92 2 -99 1 -114 -21 -16
-22 -15 -23 6 -32 13 -4 30 -12 38 -17 64 -38 72 -40 86 -28 11 9 20 9 40 0
19 -8 30 -9 39 -1 15 12 44 2 77 -28 10 -8 26 -12 38 -9 26 7 25 -1 -4 -37
-15 -18 -26 -24 -30 -17 -4 6 -13 11 -19 11 -7 -1 -2 -9 10 -19 12 -10 23 -32
25 -52 3 -30 6 -34 31 -32 33 2 37 -24 5 -36 -17 -6 -23 -17 -24 -46 l-1 -38
19 23 c16 20 21 21 28 10 8 -13 12 -12 24 5 9 11 16 15 16 8 0 -7 7 -10 15 -7
8 4 15 1 15 -4 0 -23 -24 -62 -42 -67 -10 -4 -18 -11 -18 -16 0 -5 -6 -9 -12
-8 -32 4 -49 -2 -56 -20 -4 -11 -23 -30 -42 -43 -19 -13 -36 -33 -38 -45 -2
-16 -15 -23 -62 -33 -32 -7 -62 -10 -67 -7 -5 3 -40 2 -78 -3 -42 -5 -76 -5
-87 1 -25 14 -117 19 -124 7 -3 -5 -12 -7 -20 -4 -7 3 -39 -2 -71 -10 -71 -19
-131 -13 -198 20 -50 25 -115 35 -115 17 0 -5 6 -11 13 -14 9 -4 9 -7 -1 -18
-14 -16 -16 -49 -2 -49 6 0 10 -6 10 -12 0 -14 37 -38 114 -75 45 -22 91 -54
141 -101 11 -10 28 -21 38 -25 9 -4 17 -17 17 -30 0 -24 40 -86 64 -99 8 -5
20 -24 26 -43 l12 -35 595 0 596 0 -6 29 c-5 22 -1 31 17 40 12 7 29 12 37 10
24 -3 78 13 90 27 13 16 55 19 64 4 9 -15 35 -12 29 4 -4 10 10 15 56 19 88
10 110 16 103 33 -5 12 -24 14 -113 8 -77 -5 -109 -3 -114 5 -5 8 -15 5 -33
-9 -32 -25 -43 -25 -43 -1 0 25 -63 35 -198 33 -85 -2 -108 -5 -128 -21 -20
-16 -21 -20 -8 -25 9 -3 31 -6 50 -6 19 0 34 -4 34 -10 0 -5 -22 -10 -49 -10
-56 0 -110 -19 -104 -37 5 -14 -36 -33 -68 -33 -12 0 -23 10 -29 25 -9 23 -14
25 -55 21 -24 -3 -49 -7 -55 -11 -19 -12 -10 35 30 152 47 136 80 260 80 297
0 34 76 179 115 220 61 64 112 134 281 391 40 60 114 206 114 224 0 5 4 11 9
13 13 4 47 180 50 255 1 35 -2 64 -9 68 -5 3 -8 10 -6 14 3 4 -9 5 -25 3 -21
-3 -29 -9 -25 -19 4 -9 -5 -20 -22 -30 -16 -9 -36 -29 -44 -44 -12 -20 -28
-30 -60 -36 -32 -7 -42 -13 -40 -26 4 -26 -44 -23 -51 3 -3 12 -14 20 -27 20
-11 0 -19 4 -15 9 3 5 -9 11 -27 13 -21 2 -32 8 -30 16 1 8 -7 16 -18 19 -11
3 -20 11 -20 19 0 17 -34 36 -58 32 -22 -4 -28 32 -9 69 11 23 13 55 8 105 -1
4 -7 13 -15 21 -15 14 -37 102 -38 145 0 12 -6 22 -13 22 -8 0 -11 8 -8 20 3
11 -1 30 -9 42 -12 20 -21 100 -21 206 0 38 22 60 38 38 7 -9 31 -13 75 -12
92 1 147 -5 210 -22 30 -9 81 -17 112 -18 31 -1 61 -5 67 -8 5 -4 15 2 20 12
12 23 62 45 88 40 12 -2 25 7 38 27 18 27 20 48 20 210 0 167 -1 183 -22 220
-12 22 -36 68 -53 103 -20 41 -39 66 -55 72 -14 5 -25 16 -25 23 0 16 -73 52
-88 43 -5 -3 -37 0 -71 6 -49 9 -64 9 -70 0 -6 -10 -14 -10 -37 -1 -16 7 -33
11 -37 10 -5 -1 -28 5 -53 14 -56 19 -64 19 -64 0z m-156 -1194 c6 -8 -26 -51
-38 -51 -11 0 -7 35 6 48 14 14 25 15 32 3z m-3 -393 c3 -5 19 -12 34 -16 16
-5 31 -14 33 -21 6 -17 -56 -5 -79 15 -8 8 -30 14 -47 14 -23 0 -32 5 -32 16
0 13 7 15 43 9 23 -4 45 -12 48 -17z m-191 -189 c0 -23 -23 -25 -40 -4 -10 12
-10 18 0 30 16 19 40 3 40 -26z m29 -165 c-16 -19 -29 -17 -29 4 0 26 11 34
27 21 10 -9 10 -15 2 -25z m31 -245 c0 -9 -7 -19 -15 -23 -11 -4 -15 1 -15 18
0 13 6 23 15 23 8 0 15 -8 15 -18z m160 -404 c-13 -14 -28 -25 -34 -25 -6 1 3
12 19 25 39 32 45 32 15 0z m-76 -59 c-6 -16 -34 -30 -42 -21 -6 5 28 34 40
35 4 0 5 -6 2 -14z"/>
<path d="M1223 2328 c-6 -7 -13 -26 -17 -43 l-8 -30 26 24 c14 14 26 33 26 43
0 21 -13 24 -27 6z"/>
<path d="M4080 2213 c-44 -64 -63 -197 -41 -295 11 -52 10 -61 -6 -90 -10 -18
-24 -37 -30 -41 -24 -15 -13 -36 24 -46 24 -7 41 -7 49 0 14 12 37 143 38 226
1 66 11 89 27 60 16 -28 26 -12 44 65 24 107 8 158 -49 156 -25 -1 -38 -9 -56
-35z"/>
<path d="M2586 1937 c-49 -49 -27 -79 37 -52 24 10 50 13 77 9 45 -7 50 1 22
36 -12 15 -33 24 -64 27 -40 5 -50 2 -72 -20z"/>
<path d="M3948 1654 c-4 -5 -8 -22 -9 -39 -3 -25 0 -30 16 -30 12 0 21 8 23
20 3 23 -22 63 -30 49z"/>
<path d="M2055 1572 c-11 -11 -4 -32 18 -55 19 -20 221 -127 240 -127 5 0 5
15 2 34 -4 19 -2 43 4 55 13 24 2 32 -74 50 -27 7 -59 18 -70 25 -21 14 -111
27 -120 18z"/>
<path d="M2605 1460 c-3 -5 -1 -10 4 -10 6 0 11 5 11 10 0 6 -2 10 -4 10 -3 0
-8 -4 -11 -10z"/>
<path d="M2350 1391 c0 -5 5 -13 10 -16 6 -3 10 -2 10 4 0 5 -4 13 -10 16 -5
3 -10 2 -10 -4z"/>
<path d="M5055 1146 c-27 -13 -69 -42 -93 -65 -39 -38 -46 -41 -95 -41 -60 0
-149 -23 -170 -44 -7 -8 -36 -22 -63 -31 -27 -9 -65 -28 -84 -43 -30 -23 -42
-26 -109 -25 -41 1 -82 -2 -92 -7 -9 -6 -39 -12 -66 -15 -59 -8 -65 -13 -68
-65 -2 -28 2 -43 14 -50 15 -9 14 -9 -1 -10 -9 0 -29 -11 -44 -25 -15 -14 -35
-25 -45 -25 -10 0 -20 -4 -24 -10 -3 -6 -15 -6 -30 0 -19 7 -33 4 -65 -17 -43
-29 -48 -38 -25 -47 18 -7 55 14 55 30 0 18 28 25 34 8 3 -8 3 -21 -1 -30 -5
-13 -2 -15 16 -9 27 8 122 -15 128 -32 7 -18 33 -4 33 18 0 23 4 24 38 2 l26
-18 -34 -5 c-22 -3 -35 -11 -35 -20 0 -11 12 -15 52 -14 43 0 54 -3 59 -19 6
-18 7 -18 21 2 14 20 43 29 43 13 0 -4 -6 -20 -12 -35 -10 -20 -19 -26 -40
-25 -17 1 -37 -7 -51 -20 -27 -25 -37 -20 -37 19 0 24 -5 29 -32 33 -18 3 -41
4 -50 4 -26 -2 -22 -37 4 -47 l22 -8 -22 -5 c-14 -4 -22 -14 -22 -27 0 -18 -6
-21 -46 -21 -25 0 -55 -5 -67 -12 -12 -7 -48 -13 -80 -14 -32 -1 -61 -5 -64
-8 -23 -23 110 -66 197 -63 25 0 54 -3 65 -7 36 -16 49 -18 148 -23 64 -4 107
-1 126 7 23 9 42 9 88 -1 32 -7 64 -19 71 -26 7 -7 28 -15 47 -19 19 -3 35 -7
35 -8 0 0 -4 -16 -9 -34 -9 -28 -7 -33 12 -37 12 -3 36 -5 52 -4 17 2 49 2 73
1 35 -2 43 -5 40 -19 -2 -13 -17 -20 -53 -25 -72 -10 -95 -17 -95 -28 0 -6 18
-10 39 -10 25 0 41 -5 45 -15 3 -10 19 -15 44 -15 31 0 41 5 52 24 7 13 21 27
31 29 25 7 24 24 -1 32 -54 17 2 35 111 35 l69 0 0 495 c0 272 -3 495 -7 495
-5 0 -30 -11 -58 -24z m-635 -545 c0 -12 -56 -25 -70 -16 -6 3 -8 11 -5 16 8
12 75 12 75 0z m123 -147 c20 -4 37 -12 37 -19 0 -7 14 -15 31 -19 33 -6 36
-31 4 -31 -10 0 -20 -6 -23 -13 -2 -6 -8 -10 -13 -7 -5 3 -18 1 -29 -5 -27
-14 -58 2 -66 35 -4 15 -13 25 -24 25 -25 0 -34 18 -19 36 7 9 22 13 38 10 14
-3 43 -8 64 -12z m-203 -23 c3 -1 -2 -6 -12 -11 -16 -10 -48 -4 -48 9 0 6 44
7 60 2z m-110 -31 c0 -5 -5 -10 -11 -10 -5 0 -7 5 -4 10 3 6 8 10 11 10 2 0 4
-4 4 -10z m247 -25 c0 -16 -7 -18 -31 -9 -20 8 -11 24 13 24 10 0 18 -7 18
-15z m321 -37 c16 -14 -28 -38 -68 -38 -37 0 -90 11 -90 19 0 24 132 39 158
19z"/>
<path d="M4078 513 c7 -3 16 -2 19 1 4 3 -2 6 -13 5 -11 0 -14 -3 -6 -6z"/>
<path d="M4110 500 c0 -5 5 -10 11 -10 5 0 7 5 4 10 -3 6 -8 10 -11 10 -2 0
-4 -4 -4 -10z"/>
<path d="M4140 450 c-12 -8 -9 -10 13 -10 16 0 26 4 22 10 -8 12 -16 12 -35 0z"/>
<path d="M288 390 c-24 -39 -74 -62 -118 -55 -22 4 -42 11 -46 16 -3 5 -16 9
-28 9 -13 0 -40 7 -60 15 l-36 15 0 -195 0 -195 254 0 c207 0 254 2 252 13 -2
26 91 112 160 148 47 25 70 43 72 58 2 12 9 21 15 21 37 1 -33 22 -90 27 -38
3 -77 12 -88 19 -11 8 -31 14 -46 14 -36 0 -39 7 -21 42 14 30 14 32 -9 51
-18 14 -32 17 -59 12 -48 -9 -80 -10 -112 -1 -21 6 -29 4 -40 -14z"/>
<path d="M4658 175 c-10 -11 20 -80 36 -83 18 -4 22 13 6 23 -5 3 -10 14 -10
24 0 19 -23 45 -32 36z"/>
<path d="M4505 10 c-23 -6 -14 -8 38 -9 43 -1 66 3 62 9 -7 11 -55 11 -100 0z"/>
</g>
</svg>
