<?xml version="1.0" standalone="no"?>
<!DOCTYPE svg PUBLIC "-//W3C//DTD SVG 20010904//EN"
 "http://www.w3.org/TR/2001/REC-SVG-20010904/DTD/svg10.dtd">
<svg version="1.0" xmlns="http://www.w3.org/2000/svg"
 width="200.000000pt" height="200.000000pt" viewBox="0 0 200.000000 200.000000"
 preserveAspectRatio="xMidYMid meet">
<metadata>
Created by potrace 1.16, written by Peter Selinger 2001-2019
</metadata>
<g transform="translate(0.000000,200.000000) scale(0.100000,-0.100000)"
fill="#000000" stroke="none">
<path d="M901 1781 c-12 -16 -21 -33 -21 -39 0 -15 -26 -33 -52 -34 -35 -2
-48 -17 -48 -54 0 -20 -8 -42 -19 -53 -10 -10 -22 -29 -26 -40 -6 -18 -12 -21
-41 -15 -33 6 -34 5 -34 -25 0 -24 -4 -31 -19 -31 -11 0 -22 -9 -26 -19 -3
-11 -17 -27 -31 -36 -26 -17 -154 -35 -256 -35 -37 0 -58 -4 -58 -11 0 -7 14
-34 31 -62 22 -35 27 -53 20 -60 -6 -6 -11 -15 -11 -21 0 -5 7 -1 15 10 10 14
14 15 15 5 0 -12 3 -12 12 -3 17 17 28 15 29 -5 0 -14 2 -13 9 4 8 19 16 22
55 21 30 0 49 -6 52 -15 4 -11 8 -10 18 4 13 18 17 19 53 22 12 1 27 20 42 52
26 55 59 79 111 79 l31 0 -23 18 c-16 14 -20 24 -15 38 8 18 8 18 16 -1 4 -11
6 -23 3 -27 -2 -5 1 -8 7 -8 6 0 8 10 4 25 -3 14 -2 31 4 38 6 6 12 23 14 37
2 14 9 24 15 23 6 -1 17 4 23 13 11 12 10 13 -3 9 -8 -4 -18 -1 -23 6 -4 7 -3
10 4 5 6 -3 14 -1 18 5 5 8 3 9 -6 4 -10 -6 -11 -4 -6 11 5 10 11 27 13 37 7
23 27 17 30 -9 3 -18 2 -18 -7 1 l-10 20 3 -20 c2 -11 9 -19 15 -17 7 1 12 -6
12 -15 0 -10 3 -29 7 -42 3 -14 2 -22 -3 -18 -5 3 -10 -3 -10 -14 0 -26 30
-20 34 6 7 48 13 65 23 65 14 0 29 -43 18 -55 -14 -14 -12 -42 2 -28 6 6 12
23 12 37 0 14 4 26 9 26 6 0 7 8 3 18 -4 9 -11 31 -15 47 -6 26 -8 27 -15 11
-5 -11 -3 -26 3 -37 7 -10 12 -22 12 -26 0 -5 -5 0 -11 9 -6 10 -16 15 -26 11
-13 -5 -15 -2 -9 18 4 13 12 44 18 69 9 36 12 41 18 25 6 -16 9 -13 15 18 5
23 11 35 17 29 5 -5 5 -19 -1 -35 -15 -38 -11 -115 5 -121 8 -3 15 -18 15 -33
l1 -28 8 30 c7 28 8 29 10 5 l2 -25 8 25 c8 25 8 24 9 -5 1 -28 20 -72 21 -50
1 6 8 -2 16 -18 14 -26 13 -29 -13 -53 -28 -26 -12 -23 19 3 10 9 18 11 22 4
9 -14 36 -2 36 16 0 8 -4 12 -9 9 -13 -8 -5 53 12 94 8 19 13 47 10 63 -2 15
1 27 7 27 6 0 9 3 6 8 -2 4 3 16 11 27 14 19 15 18 9 -15 -3 -19 -8 -54 -11
-77 -3 -23 -9 -53 -14 -66 -7 -18 -5 -26 9 -35 16 -10 18 -7 15 26 -1 20 0 26
2 12 6 -34 21 -47 29 -27 9 25 26 20 19 -5 -5 -18 -4 -20 4 -8 6 8 11 29 12
45 l1 30 16 -35 c12 -27 16 -31 20 -17 7 32 -6 63 -33 77 -17 9 -25 22 -25 40
0 62 -11 90 -36 90 -18 0 -32 -13 -55 -50 -17 -27 -36 -50 -42 -50 -11 0 -63
82 -67 105 -3 18 -33 45 -51 45 -10 0 -27 -13 -38 -29z"/>
<path d="M1292 1631 c-7 -4 -17 -35 -22 -69 -10 -71 -9 -85 8 -105 7 -8 10
-27 6 -44 -4 -18 -1 -33 5 -37 6 -4 9 -12 6 -17 -4 -5 4 -10 17 -10 31 -2 26
-2 91 6 55 6 57 6 58 -17 1 -23 1 -23 8 2 5 18 9 21 15 11 5 -8 11 -9 15 -3
12 19 68 24 85 7 9 -9 13 -21 10 -27 -4 -6 -2 -8 4 -4 6 3 13 -2 15 -11 3 -10
5 -1 6 20 1 36 2 37 39 37 25 0 33 3 23 9 -12 8 -12 14 2 44 10 19 17 45 17
57 0 22 -3 23 -62 17 -176 -18 -248 -20 -262 -8 -12 10 -22 36 -52 139 -4 14
-14 15 -32 3z"/>
<path d="M1330 1171 c25 -9 25 -9 -5 -11 -16 -1 -34 -2 -38 -1 -5 1 -30 4 -55
6 -33 3 -40 2 -22 -3 24 -8 23 -9 -11 -13 -20 -3 -48 -2 -63 2 -19 5 -32 2
-48 -12 l-23 -20 40 6 c72 10 239 24 288 25 l48 0 -3 -267 -3 -268 -28 -52
c-15 -29 -24 -53 -20 -53 5 -1 -7 -7 -24 -15 -18 -8 -33 -18 -33 -23 0 -6 -33
-30 -73 -55 -70 -44 -107 -53 -115 -29 -5 16 17 83 34 102 11 13 9 18 -16 35
-29 20 -39 35 -21 35 4 0 21 -10 36 -22 25 -20 27 -20 23 -2 -2 11 -13 20 -26
22 -12 2 -22 8 -22 13 0 11 -22 8 -31 -5 -4 -4 -16 1 -28 13 -12 12 -21 16
-21 9 0 -8 -7 -5 -15 6 -13 17 -13 22 0 36 19 21 19 26 -1 34 -8 3 -12 2 -9
-4 8 -13 2 -13 -26 3 -28 15 -36 37 -14 37 8 0 15 -4 15 -10 0 -5 9 -10 20
-10 29 0 25 14 -7 28 -19 8 -21 10 -5 6 12 -3 32 -2 44 2 l23 7 -23 8 c-13 5
-33 4 -50 -3 -15 -6 -34 -12 -42 -13 -8 -1 -28 -5 -43 -10 -39 -10 -45 0 -10
19 15 8 23 15 18 16 -18 0 -55 -30 -55 -45 0 -8 -5 -17 -12 -21 -7 -5 -9 -2
-6 8 4 8 0 15 -8 15 -7 0 -10 -5 -7 -11 3 -6 0 -6 -7 1 -22 20 -3 41 69 75 38
17 67 36 65 40 -3 4 2 8 11 8 9 0 13 4 10 10 -3 5 -20 10 -38 10 -18 -1 -49 2
-71 6 -22 4 -41 2 -45 -3 -3 -6 -18 -3 -36 8 -16 11 -24 19 -17 19 28 0 9 20
-20 21 l-33 1 35 15 c31 13 35 13 46 -1 6 -9 21 -16 33 -16 22 0 28 14 11 25
-5 3 -10 12 -9 18 0 8 2 8 6 -1 4 -10 10 -9 25 5 11 10 21 17 22 15 0 -2 20 0
44 4 24 4 39 11 35 15 -5 5 -26 4 -46 -2 -26 -7 -42 -7 -50 0 -7 5 -24 8 -37
6 -72 -10 -106 -19 -113 -29 -6 -7 -7 -5 -4 6 3 9 -1 24 -8 35 -8 10 -15 14
-15 8 0 -5 -5 -3 -11 5 -9 13 -10 13 -6 -2 4 -11 -3 -20 -24 -28 -16 -7 -29
-17 -29 -23 0 -8 3 -8 11 0 6 6 18 9 26 6 8 -3 20 3 28 13 14 18 14 18 15 -1
0 -11 3 -31 6 -45 5 -21 4 -22 -6 -7 -15 23 -29 22 -27 -3 1 -11 8 -20 17 -21
11 0 11 -2 2 -6 -8 -3 -10 -9 -4 -16 5 -7 11 -22 14 -33 4 -17 2 -20 -13 -17
-11 3 -19 9 -19 15 0 5 -10 3 -22 -3 l-22 -12 22 -17 c27 -22 30 -81 6 -105
-16 -16 -16 -56 0 -100 6 -16 6 -17 -3 -5 -8 11 -11 3 -11 -37 0 -29 4 -53 9
-53 4 0 20 17 35 38 14 21 42 53 61 72 32 31 37 32 61 21 25 -11 26 -10 14 4
-7 8 -10 18 -6 22 3 3 6 2 6 -4 0 -6 7 -14 16 -17 8 -3 13 -2 10 3 -12 19 23
18 55 -1 20 -12 28 -14 21 -6 -6 8 -8 19 -4 23 4 5 1 5 -5 1 -7 -4 -13 -3 -13
3 0 5 -8 11 -17 13 -10 3 5 4 32 2 82 -3 80 -3 67 -16 -9 -9 -15 -9 -24 0 -7
7 -17 12 -22 12 -6 0 0 -7 12 -16 19 -13 26 -13 38 -3 13 10 14 8 10 -15 -3
-15 -1 -24 5 -21 8 6 13 -8 10 -28 0 -4 4 -6 9 -5 6 2 17 -12 25 -29 15 -34 4
-46 -14 -16 -10 17 -10 17 -11 1 0 -9 6 -20 12 -24 20 -12 62 -10 76 4 8 7 18
9 24 6 6 -4 7 -9 1 -13 -6 -3 -13 -17 -16 -31 -3 -14 -13 -34 -21 -45 -14 -19
-15 -17 -10 20 4 28 3 36 -4 26 -6 -8 -8 -21 -5 -30 3 -12 2 -12 -7 2 -6 9 -9
21 -5 26 3 5 0 13 -6 17 -8 5 -9 3 -4 -7 5 -8 -7 0 -26 16 -21 17 -34 37 -31
46 4 16 -29 33 -57 29 -7 -1 -10 3 -7 8 3 6 -6 18 -20 27 l-27 17 28 -36 c15
-20 32 -33 38 -29 5 3 7 1 4 -4 -4 -6 -1 -16 7 -22 8 -7 17 -23 20 -37 4 -14
10 -23 14 -20 4 2 8 -10 9 -27 l2 -32 -19 23 c-10 12 -25 20 -33 17 -7 -3 -20
1 -27 9 -17 21 -28 12 -22 -19 6 -33 14 -37 46 -25 23 8 28 7 38 -15 15 -32
42 -34 35 -2 -4 12 -2 29 3 37 6 9 5 17 -3 22 -9 6 -9 8 1 8 18 0 55 -67 56
-102 1 -26 -8 -37 -58 -75 -48 -37 -63 -43 -75 -34 -9 6 -36 24 -59 39 -203
127 -296 197 -286 213 2 4 -5 13 -16 19 -11 6 -20 18 -20 28 0 9 -9 32 -20 50
-11 18 -20 47 -20 66 0 27 4 32 23 32 15 -1 23 5 25 21 2 15 11 23 30 25 17 2
28 10 30 21 3 15 0 17 -15 9 -10 -6 -22 -11 -28 -12 -5 -1 -16 -11 -23 -23
-12 -20 -12 -19 -6 13 9 46 19 61 61 89 37 24 39 37 3 26 -11 -4 -34 -27 -49
-52 l-28 -45 -5 30 c-2 17 -2 29 2 27 3 -2 14 9 23 24 16 28 59 47 77 36 6 -3
7 1 4 9 -10 26 -40 18 -72 -18 l-30 -34 -12 26 c-6 15 -14 69 -17 120 l-6 92
54 0 c30 0 72 5 94 10 24 5 44 5 50 0 8 -6 25 -3 49 9 23 12 32 22 25 26 -6 4
-14 3 -18 -2 -3 -6 -17 -16 -31 -23 -22 -12 -24 -11 -13 2 11 13 6 15 -40 16
-40 0 -46 -2 -27 -8 25 -8 25 -8 -5 -10 -16 -1 -34 -2 -40 0 -5 1 -32 3 -60 6
-37 3 -44 1 -25 -5 24 -9 24 -9 3 -10 l-23 -1 0 -222 c0 -123 -3 -234 -6 -248
-4 -20 -3 -22 5 -10 6 9 11 10 11 3 0 -6 3 -20 6 -30 5 -15 4 -16 -6 -3 -9 12
-10 10 -5 -10 4 -14 12 -29 17 -35 6 -6 7 -3 2 10 -4 11 -4 17 1 13 4 -4 9
-18 10 -32 4 -29 48 -91 73 -102 9 -4 25 -8 35 -9 10 -1 23 -8 30 -15 10 -10
7 -10 -13 -1 -23 11 -23 11 -7 -3 11 -8 25 -12 33 -9 9 3 14 0 12 -8 -2 -9 4
-13 15 -11 10 2 16 -3 15 -10 -2 -7 4 -12 14 -10 9 1 20 -3 24 -9 5 -8 3 -9
-6 -4 -8 5 -11 4 -6 -3 4 -6 13 -9 20 -6 8 3 17 0 22 -7 5 -8 3 -10 -6 -4 -8
5 -11 4 -6 -3 4 -6 13 -9 20 -6 8 3 17 0 22 -7 5 -8 3 -10 -6 -4 -8 5 -11 4
-6 -3 4 -6 13 -9 20 -6 8 3 17 0 22 -7 4 -8 3 -10 -4 -5 -7 4 -12 5 -12 3 0
-10 56 -41 72 -40 10 1 17 -4 15 -10 -1 -7 5 -11 13 -9 8 2 28 5 44 7 24 3
276 160 276 172 0 2 -5 1 -12 -3 -7 -4 -8 -3 -4 5 4 6 15 10 24 9 9 -2 17 3
17 11 0 8 6 16 14 19 9 3 11 0 7 -9 -4 -8 6 1 24 19 19 20 29 40 26 49 -4 10
-2 13 8 10 11 -4 13 -1 9 10 -4 11 -2 14 5 9 8 -5 10 -1 5 10 -4 12 -3 15 5
10 8 -5 10 -1 5 10 -5 12 -3 15 6 9 10 -6 11 -2 6 15 -5 16 -4 20 4 15 8 -5
10 1 5 21 -4 15 -3 25 2 21 7 -4 8 513 1 519 -1 1 -36 4 -77 8 -48 3 -66 2
-50 -3z"/>
</g>
</svg>
